<svg width="14" height="14" viewBox="0 0 14 14" fill="none" xmlns="http://www.w3.org/2000/svg">
<path fill-rule="evenodd" clip-rule="evenodd" d="M11.9758 6.69082C12.0577 6.77285 12.1038 6.88405 12.1038 6.99999C12.1038 7.11593 12.0577 7.22712 11.9758 7.30915L8.47581 10.8092C8.43576 10.8521 8.38746 10.8866 8.33379 10.9105C8.28013 10.9344 8.22219 10.9473 8.16345 10.9483C8.10471 10.9494 8.04636 10.9386 7.99188 10.9166C7.9374 10.8946 7.88792 10.8618 7.84637 10.8203C7.80483 10.7787 7.77208 10.7292 7.75007 10.6748C7.72807 10.6203 7.71726 10.5619 7.7183 10.5032C7.71934 10.4444 7.73219 10.3865 7.75611 10.3328C7.78002 10.2792 7.81449 10.2309 7.85748 10.1908L10.6108 7.43749L2.33331 7.43749C2.21728 7.43749 2.106 7.39139 2.02395 7.30935C1.9419 7.2273 1.89581 7.11602 1.89581 6.99999C1.89581 6.88396 1.9419 6.77268 2.02395 6.69063C2.106 6.60858 2.21728 6.56249 2.33331 6.56249H10.6108L7.85748 3.80915C7.81449 3.7691 7.78002 3.7208 7.75611 3.66714C7.73219 3.61347 7.71934 3.55554 7.7183 3.49679C7.71726 3.43805 7.72807 3.3797 7.75007 3.32522C7.77208 3.27075 7.80483 3.22126 7.84637 3.17972C7.88792 3.13817 7.9374 3.10542 7.99188 3.08342C8.04636 3.06141 8.10471 3.05061 8.16345 3.05164C8.22219 3.05268 8.28013 3.06554 8.33379 3.08945C8.38746 3.11336 8.43576 3.14784 8.47581 3.19082L11.9758 6.69082Z" fill="#9D0063"/>
</svg>
