<svg width="77" height="83" viewBox="0 0 77 83" fill="none" xmlns="http://www.w3.org/2000/svg">
<path fill-rule="evenodd" clip-rule="evenodd" d="M55.4755 0.215224C44.6597 1.88628 31.511 9.18304 21.74 18.9362C11.1697 29.4874 4.19454 41.2907 0.951362 54.1146L0 57.8761L0.00351527 64.1873L0.00703053 70.4984L0.811941 72.5113C1.72888 74.8044 2.61632 75.5824 4.31605 75.5824H5.502L6.65986 74.4264C7.7868 73.3013 8.58644 71.336 8.59031 69.6825C8.59206 68.9476 9.227 68.2001 11.4391 66.3281L12.1043 65.765V63.9979V62.2311L14.3652 59.8277L16.6265 57.4238L16.8779 55.1956L17.1297 52.9674L18.2714 51.9156C18.8993 51.337 19.8243 50.5481 20.3276 50.1625L21.2421 49.4612L21.556 47.7334L21.87 46.0055L23.3084 44.6795C24.185 43.8716 24.7472 43.04 24.7483 42.5505C24.7504 41.2613 25.9609 39.6379 27.4271 38.9573C29.4218 38.0321 29.9216 37.4795 30.5698 35.4827C31.3193 33.1756 32.5147 31.9137 34.6099 31.2192C36.5624 30.5716 36.8448 30.2865 37.5721 28.2284C38.3113 26.1369 39.3091 25.1759 41.3782 24.5623C43.6167 23.8986 44.2537 23.2993 44.9522 21.1995C45.616 19.2045 46.7865 18.1586 48.6973 17.8535L50.0665 17.6351L50.7141 16.3676C51.6163 14.6036 52.4202 13.99 54.2147 13.6959C55.8484 13.428 56.8394 12.6338 57.8122 10.8134C58.5627 9.40884 59.8343 8.5947 61.8709 8.21497C63.8831 7.83946 64.9613 7.15891 65.8508 5.70244C66.9419 3.91533 66.5321 0.909108 65.2633 1.39507C64.9785 1.50411 64.8324 1.45292 64.9388 1.28111C65.527 0.330581 59.2819 -0.372766 55.4755 0.215224ZM50.0321 1.96832L49.5053 2.32421L50.5589 2.08895C51.8502 1.80039 52.1304 1.59983 51.2321 1.60684C50.8619 1.61 50.3218 1.77233 50.0321 1.96832ZM69.1716 7.19713C68.0503 7.66345 66.4271 9.55399 66.7291 10.0421C66.8981 10.3148 66.8527 10.386 66.6069 10.2345C66.1816 9.97228 65.133 11.704 65.133 12.6685C65.133 13.9248 63.6615 15.8189 61.9467 16.7701C60.0324 17.8318 58.9146 19.3307 58.5971 21.2612C58.2424 23.4158 56.9662 25.5058 55.5604 26.234C53.6974 27.1993 52.2839 28.9748 51.6525 31.1431C51.3498 32.183 50.7966 33.3096 50.4237 33.6469C50.0507 33.9838 49.2634 35.2671 48.6741 36.4988L47.6026 38.7382L46.0957 39.4938C43.7656 40.6614 43.079 41.4716 42.6432 43.5687C42.1494 45.9434 40.6611 47.7162 38.2682 48.78C36.0624 49.7606 35.1735 50.7399 34.4392 52.9986C33.773 55.0473 32.5498 56.3628 30.5414 57.1913C28.5892 57.9964 27.9644 58.6394 27.5223 60.2985C27.0573 62.0429 26.4491 62.7655 24.985 63.3142C22.6981 64.1708 22.2921 64.5056 21.7169 66.0091C21.0791 67.6766 19.9093 68.6945 17.8261 69.3947L16.4941 69.8424L15.6867 71.5075L14.8793 73.1729L12.7016 74.1575C10.2338 75.2735 9.07354 76.3622 8.6019 78.0041C7.68356 81.2007 10.4379 82.7309 17.0208 82.6807C23.3305 82.6327 29.3986 80.9753 36.8441 77.2664C49.0224 71.2 58.1283 62.8135 65.559 50.8206C74.7835 35.9318 78.5928 17.7873 74.2701 9.32749C73.1298 7.09615 71.277 6.32198 69.1716 7.19713Z" fill="url(#paint0_linear_11_25)"/>
<defs>
<linearGradient id="paint0_linear_11_25" x1="38.0241" y1="0" x2="38.0241" y2="82.6819" gradientUnits="userSpaceOnUse">
<stop stop-color="#F05014"/>
<stop offset="1" stop-color="#9E0261"/>
</linearGradient>
</defs>
</svg>
