<svg width="40" height="43" viewBox="0 0 40 43" fill="none" xmlns="http://www.w3.org/2000/svg">
<path fill-rule="evenodd" clip-rule="evenodd" d="M29.1791 0.11193C23.4902 0.980988 16.5742 4.77578 11.4349 9.84808C5.87509 15.3354 2.20626 21.4739 0.500399 28.1432L0 30.0994L0.00184897 33.3816L0.00369794 36.6638L0.427066 37.7106C0.909361 38.9032 1.37614 39.3078 2.27017 39.3078H2.89396L3.50297 38.7066C4.09572 38.1215 4.51632 37.0994 4.51835 36.2395C4.51927 35.8573 4.85324 35.4685 6.01677 34.495L6.36662 34.2021V33.2831V32.3643L7.55582 31.1143L8.74522 29.8641L8.87747 28.7053L9.00991 27.5465L9.61043 26.9995C9.9407 26.6986 10.4272 26.2883 10.6919 26.0878L11.1729 25.7231L11.3381 24.8245L11.5032 23.9259L12.2598 23.2362C12.7209 22.8161 13.0166 22.3836 13.0171 22.129C13.0183 21.4586 13.655 20.6143 14.4262 20.2604C15.4754 19.7792 15.7382 19.4918 16.0792 18.4533C16.4734 17.2535 17.1022 16.5972 18.2042 16.236C19.2312 15.8992 19.3797 15.751 19.7623 14.6806C20.1511 13.5929 20.6759 13.0931 21.7642 12.774C22.9416 12.4288 23.2767 12.1172 23.6441 11.0251C23.9932 9.98757 24.6088 9.44364 25.6139 9.285L26.3341 9.1714L26.6747 8.51222C27.1492 7.59484 27.5721 7.27573 28.516 7.12275C29.3753 6.98343 29.8965 6.57042 30.4082 5.62369C30.8029 4.89321 31.4718 4.4698 32.543 4.27232C33.6014 4.07703 34.1685 3.7231 34.6364 2.96564C35.2103 2.03623 34.9947 0.472796 34.3273 0.725526C34.1775 0.782236 34.1007 0.755611 34.1566 0.666262C34.466 0.171924 31.1812 -0.193863 29.1791 0.11193ZM26.316 1.02366L26.0389 1.20874L26.5931 1.08639C27.2723 0.936318 27.4197 0.832017 26.9472 0.835664C26.7525 0.837305 26.4684 0.921726 26.316 1.02366ZM36.383 3.74298C35.7932 3.9855 34.9395 4.9687 35.0983 5.22253C35.1872 5.36439 35.1633 5.40141 35.034 5.32263C34.8104 5.18624 34.2588 6.08684 34.2588 6.58847C34.2588 7.24182 33.4848 8.22685 32.5829 8.72155C31.576 9.27369 30.988 10.0532 30.821 11.0572C30.6345 12.1777 29.9632 13.2647 29.2238 13.6434C28.2439 14.1454 27.5004 15.0688 27.1683 16.1964C27.0091 16.7373 26.7181 17.3231 26.5219 17.4986C26.3258 17.6738 25.9116 18.3412 25.6017 18.9818L25.0381 20.1464L24.2455 20.5394C23.0199 21.1466 22.6588 21.568 22.4296 22.6586C22.1698 23.8936 21.387 24.8155 20.1284 25.3688C18.9682 25.8788 18.5006 26.3881 18.1144 27.5627C17.764 28.6282 17.1206 29.3124 16.0642 29.7432C15.0374 30.1619 14.7088 30.4963 14.4762 31.3592C14.2317 32.2663 13.9117 32.6422 13.1417 32.9275C11.9388 33.373 11.7252 33.5471 11.4227 34.329C11.0872 35.1963 10.4719 35.7256 9.37621 36.0898L8.67558 36.3226L8.25091 37.1886L7.82625 38.0547L6.68082 38.5667C5.38282 39.1471 4.77252 39.7133 4.52445 40.5673C4.04141 42.2297 5.49014 43.0255 8.95265 42.9994C12.2715 42.9744 15.4632 42.1124 19.3793 40.1836C25.7849 37.0287 30.5744 32.6671 34.4829 26.43C39.3348 18.6869 41.3384 9.25054 39.0647 4.85091C38.465 3.69046 37.4904 3.28784 36.383 3.74298Z" fill="#333333"/>
</svg>
