<svg width="442" height="95" viewBox="0 0 442 95" fill="none" xmlns="http://www.w3.org/2000/svg">
<path fill-rule="evenodd" clip-rule="evenodd" d="M104.763 6.44003C104.284 6.68231 103.694 7.2717 103.451 7.74994L103.01 8.61949L103.005 39.7528L103 70.8865L103.862 71.7469L104.724 72.6076H109.099H113.473L114.382 71.5288L115.291 70.4503L115.292 60.2213L115.293 49.9927L124.511 49.9706L133.729 49.9481L136.092 49.3636C146.5 46.7887 152.868 38.7556 152.868 28.2002C152.868 16.6967 145.348 7.98521 134.004 6.34746C132.694 6.15848 125.774 6.00281 118.628 6.00211L105.634 6L104.763 6.44003ZM115.291 27.7283V37.8963H123.882H132.473L134.358 37.1922C136.939 36.228 138.906 34.456 139.864 32.2323L140.656 30.3947L140.504 27.3959L140.351 24.3974L139.601 22.95C138.609 21.0377 136.016 18.799 133.998 18.1125L132.374 17.5603H123.833H115.291V27.7283ZM172.736 25.9962C164.231 27.4176 157.728 33.4262 154.926 42.4543L154.109 45.084L154.108 49.642L154.106 54.2001L154.72 56.4791C155.564 59.6151 157.421 63.2661 159.436 65.7551C161.468 68.2645 165.576 71.1445 168.694 72.2454L170.954 73.0431L175.202 73.2167L179.45 73.3899L181.523 72.7924C184.364 71.9737 187.179 70.4243 189.212 68.5608C190.15 67.7011 190.969 66.9977 191.032 66.9977C191.095 66.9977 191.147 67.9146 191.147 69.0352V71.073L191.863 71.8401L192.579 72.6076H197.07H201.56L202.324 71.7963L203.087 70.9846V49.9018V28.8194L202.239 27.8356L201.391 26.8517H197.175H192.959L192.053 27.7016L191.147 28.5519V30.4189C191.147 31.4459 191.099 32.2863 191.039 32.2863C190.98 32.2863 190.163 31.5718 189.224 30.698C185.139 26.9005 178.557 25.0232 172.736 25.9962ZM210.645 27.7206L210.017 28.4137L210.204 29.7366C210.308 30.4638 214.516 40.6837 219.557 52.447C224.597 64.2103 228.722 74.1213 228.722 74.4715C228.725 75.7404 226.382 80.1516 225.119 81.2564C223.613 82.5733 220.648 83.3114 218.284 82.9572C216.365 82.6701 214.915 83.2023 214.371 84.3937C213.867 85.4971 213.853 90.8914 214.35 91.9819C214.974 93.3493 216.009 93.7167 219.774 93.9085L223.345 94.0905L225.947 93.5113C228.968 92.8384 231.447 91.5219 233.575 89.4599C236.742 86.3912 236.455 87.0031 252.782 48.5902C255.815 41.4551 258.833 34.3869 259.489 32.8831C260.834 29.7997 260.974 28.452 260.039 27.6073L259.397 27.027H254.468H249.538L248.613 27.7539C248.104 28.1532 247.688 28.622 247.688 28.7952C247.688 28.9684 246.202 32.7039 244.386 37.0968C242.57 41.4898 239.785 48.2396 238.197 52.0964C236.61 55.9532 235.27 59.1561 235.219 59.2143C235.168 59.2722 233.698 55.7221 231.953 51.3254C225.557 35.2165 222.758 28.5869 222.025 27.8159L221.275 27.027H216.274H211.273L210.645 27.7206ZM175.089 36.9759C171.672 37.8426 168.856 40.2787 167.134 43.8568L166.037 46.1358V49.6494V53.163L167.19 55.4995C169.379 59.9387 173.329 62.4397 178.153 62.4397C182.983 62.4397 187.205 59.7395 189.43 55.2278L190.538 52.9792L190.71 50.5831C191.342 41.7608 183.422 34.862 175.089 36.9759Z" fill="black"/>
<path fill-rule="evenodd" clip-rule="evenodd" d="M432.856 4.35555C428.113 6.09252 427.027 12.884 431.012 15.8934C434.026 18.1703 437.826 17.7727 440.337 14.9173C442.92 11.9805 441.925 6.38214 438.535 4.77595C436.737 3.92429 434.489 3.75774 432.856 4.35555ZM298.302 4.89831C293.733 5.88987 290.025 7.39928 286.381 9.75194C277.903 15.2258 272.328 23.6824 270.568 33.7407L270 36.9811L270.204 40.6626C270.782 51.0848 275.832 60.4926 284.124 66.5948C297.45 76.4017 317.717 75.1489 329.068 63.8168C331.592 61.2969 332.951 59.331 334.711 55.6548C336.609 51.6914 337.516 47.9446 337.758 43.0749C337.981 38.567 337.822 37.4688 336.798 36.4464L336.105 35.7539H321.515H306.925L306.063 36.6147L305.201 37.4751V41.2867V45.0983L306.112 45.9485L307.022 46.7985L312.872 46.7059C316.089 46.655 320.177 46.7087 321.956 46.8255L325.191 47.0372L324.532 48.7696C322.264 54.7274 316.589 59.4113 309.931 60.8194C304.745 61.9161 299.905 61.251 294.813 58.7416L291.625 57.1709L289.367 54.9171C278.427 43.9945 281.397 25.5838 295.22 18.6437C298.361 17.0666 301.378 16.3727 305.201 16.3485C309.265 16.3229 311.528 16.8289 315.245 18.5946L318.091 19.9462L320.739 22.4156C322.422 23.984 323.681 24.8847 324.191 24.8847C324.963 24.8847 330.166 21.6934 331.803 20.2162L332.593 19.503V18.1738V16.8443L330.047 14.3198C325.537 9.84767 319.722 6.58093 313.543 5.04837C312.323 4.74579 309.161 4.43655 306.43 4.35275L301.513 4.20163L298.302 4.89831ZM349.773 4.99543C346.376 7.28112 345.689 11.9991 348.301 15.0993C350.841 18.1128 356.335 17.7948 358.566 14.5049L359.43 13.2311L359.56 11.0811L359.689 8.93149L358.845 7.3537C358.317 6.36741 357.484 5.48244 356.623 4.99262L355.244 4.20969L353.101 4.20373L350.958 4.19812L349.773 4.99543ZM407.993 6.16019C407.453 6.45261 406.861 7.08758 406.677 7.57144C406.489 8.06406 406.341 13.4566 406.341 19.8235C406.341 26.0782 406.246 31.1959 406.13 31.1959C406.013 31.1959 405.127 30.4862 404.161 29.6191C400.79 26.5926 395.223 24.5464 390.363 24.5464C387.159 24.5464 383.658 25.417 380.354 27.0358L377.369 28.4982L374.543 31.3372C369.919 35.9822 367.809 40.8032 367.467 47.5067L367.269 51.3705L368.014 54.3438C368.423 55.9791 369.413 58.6582 370.215 60.2973L371.673 63.2776L374.696 66.2607C379.518 71.0179 384.12 72.9197 390.807 72.9197C396.389 72.9197 400.471 71.4257 404.372 67.9542L406.341 66.2018V68.3493V70.4972L407.204 71.3576L408.065 72.2184H412.248H416.431L417.356 71.4916L418.282 70.7651V39.0904V7.41612L417.201 6.50835L416.121 5.6006L412.548 5.61463L408.975 5.62865L407.993 6.16019ZM348.572 26.3601C348.185 26.5814 347.677 27.0102 347.442 27.3135L347.014 27.865L347.003 49.1809L346.991 70.4972L347.854 71.3576L348.715 72.2184H352.962H357.208L358.07 71.3576L358.932 70.4972V49.2956V28.0939L358.022 27.0154L357.113 25.9366L353.194 25.9471C350.908 25.9534 348.981 26.1256 348.572 26.3601ZM429.978 26.7826L428.993 27.6287L428.897 48.8906L428.801 70.1525L429.836 71.1855L430.87 72.2184H435.092H439.313L440.299 71.3724L441.284 70.5263L441.388 50.2475C441.444 39.0943 441.394 29.4382 441.277 28.7899C441.159 28.1416 440.685 27.2346 440.223 26.7738L439.385 25.9366H435.174H430.964L429.978 26.7826ZM389.485 35.8731C385.441 36.8079 382.315 39.2678 380.524 42.9227L379.521 44.9696L379.369 47.8444C379.023 54.4227 382.491 59.5414 388.554 61.4018L390.959 62.1398L393.31 61.9719C398.081 61.6311 402.398 58.5884 404.517 54.0749L405.464 52.0578V48.7195V45.3813L404.314 43.0493C401.566 37.4776 395.417 34.5019 389.485 35.8731Z" fill="url(#paint0_linear_11_5)"/>
<path fill-rule="evenodd" clip-rule="evenodd" d="M55.4755 0.215224C44.6597 1.88628 31.511 9.18304 21.74 18.9362C11.1697 29.4874 4.19454 41.2907 0.951362 54.1146L0 57.8761L0.00351527 64.1873L0.00703053 70.4984L0.811941 72.5113C1.72888 74.8044 2.61632 75.5824 4.31605 75.5824H5.502L6.65986 74.4264C7.7868 73.3013 8.58644 71.336 8.59031 69.6825C8.59206 68.9476 9.227 68.2001 11.4391 66.3281L12.1043 65.765V63.9979V62.2311L14.3652 59.8277L16.6265 57.4238L16.8779 55.1956L17.1297 52.9674L18.2714 51.9156C18.8993 51.337 19.8243 50.5481 20.3276 50.1625L21.2421 49.4612L21.556 47.7334L21.87 46.0055L23.3084 44.6795C24.185 43.8716 24.7472 43.04 24.7483 42.5505C24.7504 41.2613 25.9609 39.6379 27.4271 38.9573C29.4218 38.0321 29.9216 37.4795 30.5698 35.4827C31.3193 33.1756 32.5147 31.9137 34.6099 31.2192C36.5624 30.5716 36.8448 30.2865 37.5721 28.2284C38.3113 26.1369 39.3091 25.1759 41.3782 24.5623C43.6167 23.8986 44.2537 23.2993 44.9522 21.1995C45.616 19.2045 46.7865 18.1586 48.6973 17.8535L50.0665 17.6351L50.7141 16.3676C51.6163 14.6036 52.4202 13.99 54.2147 13.6959C55.8484 13.428 56.8394 12.6338 57.8122 10.8134C58.5627 9.40884 59.8343 8.5947 61.8709 8.21497C63.8831 7.83946 64.9613 7.15891 65.8508 5.70244C66.9419 3.91533 66.5321 0.909108 65.2633 1.39507C64.9785 1.50411 64.8324 1.45292 64.9388 1.28111C65.527 0.330581 59.2819 -0.372766 55.4755 0.215224ZM50.0321 1.96832L49.5053 2.32421L50.5589 2.08895C51.8502 1.80039 52.1304 1.59983 51.2321 1.60684C50.8619 1.61 50.3218 1.77233 50.0321 1.96832ZM69.1716 7.19713C68.0503 7.66345 66.4271 9.55399 66.7291 10.0421C66.8981 10.3148 66.8527 10.386 66.6069 10.2345C66.1816 9.97228 65.133 11.704 65.133 12.6685C65.133 13.9248 63.6615 15.8189 61.9467 16.7701C60.0324 17.8318 58.9146 19.3307 58.5971 21.2612C58.2424 23.4158 56.9662 25.5058 55.5604 26.234C53.6974 27.1993 52.2839 28.9748 51.6525 31.1431C51.3498 32.183 50.7966 33.3096 50.4237 33.6469C50.0507 33.9838 49.2634 35.2671 48.6741 36.4988L47.6026 38.7382L46.0957 39.4938C43.7656 40.6614 43.079 41.4716 42.6432 43.5687C42.1494 45.9434 40.6611 47.7162 38.2682 48.78C36.0624 49.7606 35.1735 50.7399 34.4392 52.9986C33.773 55.0473 32.5498 56.3628 30.5414 57.1913C28.5892 57.9964 27.9644 58.6394 27.5223 60.2985C27.0573 62.0429 26.4491 62.7655 24.985 63.3142C22.6981 64.1708 22.2921 64.5056 21.7169 66.0091C21.0791 67.6766 19.9093 68.6945 17.8261 69.3947L16.4941 69.8424L15.6867 71.5075L14.8793 73.1729L12.7016 74.1575C10.2338 75.2735 9.07354 76.3622 8.6019 78.0041C7.68356 81.2007 10.4379 82.7309 17.0208 82.6807C23.3305 82.6327 29.3986 80.9753 36.8441 77.2664C49.0224 71.2 58.1283 62.8135 65.559 50.8206C74.7835 35.9318 78.5928 17.7873 74.2701 9.32749C73.1298 7.09615 71.277 6.32198 69.1716 7.19713Z" fill="url(#paint1_linear_11_5)"/>
<defs>
<linearGradient id="paint0_linear_11_5" x1="277" y1="20.5" x2="442" y2="73" gradientUnits="userSpaceOnUse">
<stop stop-color="#FA4821"/>
<stop offset="1" stop-color="#9E0261"/>
</linearGradient>
<linearGradient id="paint1_linear_11_5" x1="38.0241" y1="0" x2="38.0241" y2="82.6819" gradientUnits="userSpaceOnUse">
<stop stop-color="#F05014"/>
<stop offset="1" stop-color="#9E0261"/>
</linearGradient>
</defs>
</svg>
