<svg width="80" height="26" viewBox="0 0 80 26" fill="none" xmlns="http://www.w3.org/2000/svg">
<g clip-path="url(#clip0_11_18)">
<path fill-rule="evenodd" clip-rule="evenodd" d="M9.94786 1.74963C8.76363 2.32874 6.87563 3.36891 5.64221 4.31705C2.63106 6.6311 0 9.14021 0 12.2859C0 15.6152 2.58243 18.339 6.56904 18.8374C7.36006 18.936 6.69002 19.6971 6.69002 19.6971C6.69002 19.6971 7.2133 19.527 7.57002 19.4048C7.67344 19.3693 7.84484 19.7288 7.84484 19.7288C7.84484 19.7288 8.16593 19.3561 8.19943 19.3815C8.58544 19.6764 9.10164 19.7288 9.10164 19.7288C9.10164 19.7288 8.42061 18.9387 9.26889 18.8245C13.2003 18.2941 15.7404 15.588 15.7404 12.2859C15.7404 8.97167 13.7666 6.65767 9.93715 4.16944C9.44265 3.84821 9.38659 2.94101 9.94786 1.74963ZM8.44702 5.0853C10.4803 6.93886 11.497 9.25495 11.497 11.5711C11.497 13.8869 10.4803 16.203 8.44702 18.0566C11.3197 14.5219 11.9228 8.99891 8.44702 5.0853ZM7.27793 5.0847C5.24463 6.93824 4.22795 9.25439 4.22795 11.5705C4.22795 13.8866 5.24463 16.2024 7.27793 18.056C4.40497 14.5213 3.8022 8.99829 7.27793 5.0847ZM7.86262 17.8352C8.01652 15.7049 8.09358 13.5746 8.09358 11.4441C8.09358 9.31385 8.01652 7.1836 7.86262 5.05334C7.41404 9.31385 7.41404 13.5746 7.86262 17.8352ZM10.3976 5.77943C12.6548 7.67664 13.9582 9.86217 14.0634 11.9721C14.1683 14.0817 13.0752 16.1158 10.5393 17.7096C15.0083 13.7961 14.0151 9.47222 10.3976 5.77943ZM5.32733 5.77915C3.07016 7.67602 1.76679 9.86154 1.66153 11.9715C1.55628 14.0811 2.64944 16.1152 5.18532 17.7091C0.716622 13.7955 1.70957 9.4716 5.32733 5.77915Z" fill="url(#paint0_linear_11_18)"/>
<path d="M22.9705 17.7196C19.554 17.7196 17.559 16.2794 17.4673 13.5848H21.2508C21.3884 14.4675 21.7782 14.9553 22.9476 14.9553C23.9566 14.9553 24.4151 14.5604 24.4151 13.9565C24.4151 13.3758 23.8419 13.097 22.1909 12.8647C18.9807 12.4466 17.6278 11.4942 17.6278 8.96226C17.6278 6.2677 19.9896 4.96685 22.7641 4.96685C25.7222 4.96685 27.7859 5.98893 28.0611 8.89256H24.3464C24.1858 8.07956 23.7502 7.68464 22.81 7.68464C21.9157 7.68464 21.4572 8.07956 21.4572 8.63703C21.4572 9.21773 22.0075 9.45004 23.475 9.63588C26.7999 10.054 28.405 10.9367 28.405 13.5384C28.405 16.4187 26.2954 17.7196 22.9705 17.7196ZM37.0892 21.4783V15.5416C36.4906 16.7011 35.1553 17.6983 33.3365 17.6983C30.5509 17.6983 28.2716 15.6807 28.2716 11.4833V11.2978C28.2716 7.1699 30.5278 4.96685 33.3826 4.96685C35.2704 4.96685 36.3985 5.7785 37.0892 7.00757V5.29151H41.2101V21.4783H37.0892ZM34.6955 14.4978C36.1686 14.4978 37.0752 13.451 37.0752 11.3808V11.1947C37.0752 9.14765 36.2366 8.05435 34.7409 8.05435C33.2224 8.05435 32.4066 9.10113 32.4066 11.2179V11.4041C32.4066 13.451 33.2905 14.4978 34.6955 14.4978ZM46.1992 17.5853C43.872 17.5853 42.1438 16.1541 42.1438 13.107V5.23533H46.2684V12.4376C46.2684 13.7996 46.7983 14.4689 47.9735 14.4689C49.2177 14.4689 50.0242 13.7303 50.0242 12.1837V5.23533H54.1487V17.3083H50.0242V15.4385C49.379 16.685 48.2039 17.5853 46.1992 17.5853ZM58.6082 17.7196C56.4524 17.7196 54.5488 16.651 54.5488 14.0726C54.5488 11.2154 56.934 10.1004 60.9248 10.1004H62.0713V9.82173C62.0713 8.66026 61.7961 7.89371 60.4885 7.89371C59.3651 7.89371 58.9524 8.56734 58.8603 9.33389H55.0075C55.191 6.40702 57.4615 4.96685 60.7412 4.96685C64.0436 4.96685 66.1536 6.33733 66.1536 9.56619V17.4408H62.1628V16.0239C61.5895 16.9066 60.5346 17.7196 58.6082 17.7196ZM60.1075 14.7663C61.2793 14.7663 62.1518 14.1052 62.1518 13.0795V12.35H61.0727C59.4186 12.35 58.6836 12.6691 58.6836 13.6493C58.6836 14.3332 59.1429 14.7663 60.1075 14.7663ZM71.7518 17.7196C68.9662 17.7196 66.6871 15.7044 66.6871 11.512V11.3266C66.6871 7.20364 68.9432 5.00317 71.7979 5.00317C73.6856 5.00317 74.8137 5.81388 75.5043 7.04148V0H79.6258V17.4416H75.5043V15.4728C74.9058 16.7235 73.5705 17.7196 71.7518 17.7196ZM73.1113 14.4978C74.5841 14.4978 75.4905 13.451 75.4905 11.3808V11.1947C75.4905 9.14765 74.652 8.05435 73.1561 8.05435C71.6379 8.05435 70.8218 9.10113 70.8218 11.2179V11.4041C70.8218 13.451 71.7058 14.4978 73.1113 14.4978Z" fill="url(#paint1_linear_11_18)"/>
<path d="M43.251 24.3044V20.1937H43.8621V21.7211H43.8989C43.9343 21.6569 43.9854 21.5827 44.0522 21.4983C44.119 21.4141 44.2116 21.3405 44.3301 21.2776C44.4487 21.2133 44.6053 21.1812 44.8002 21.1812C45.0536 21.1812 45.2798 21.2441 45.4788 21.3699C45.6777 21.4957 45.8337 21.677 45.9468 21.9138C46.0612 22.1507 46.1185 22.4357 46.1185 22.7689C46.1185 23.1021 46.0619 23.3877 45.9488 23.6259C45.8357 23.8628 45.6804 24.0454 45.4829 24.1739C45.2853 24.301 45.0598 24.3646 44.8063 24.3646C44.6156 24.3646 44.4596 24.3331 44.3383 24.2702C44.2184 24.2074 44.1244 24.1338 44.0563 24.0494C43.9881 23.9652 43.9356 23.8902 43.8989 23.8247H43.8478V24.3044H43.251ZM43.8498 22.7628C43.8498 22.9796 43.8818 23.1696 43.9459 23.3329C44.0099 23.4962 44.1026 23.624 44.2239 23.7163C44.3451 23.8073 44.4936 23.8528 44.6694 23.8528C44.852 23.8528 45.0046 23.8053 45.1272 23.7103C45.2498 23.6139 45.3425 23.4834 45.4052 23.3188C45.4692 23.1543 45.5012 22.9689 45.5012 22.7628C45.5012 22.5595 45.4699 22.3768 45.4072 22.2149C45.3459 22.053 45.2532 21.9252 45.1293 21.8315C45.0066 21.7379 44.8533 21.691 44.6694 21.691C44.4922 21.691 44.3424 21.7358 44.2198 21.8255C44.0985 21.9152 44.0065 22.0403 43.9439 22.2008C43.8811 22.3614 43.8498 22.5487 43.8498 22.7628ZM47.0842 25.4605C46.9929 25.4605 46.9097 25.4531 46.8348 25.4384C46.7599 25.425 46.704 25.4103 46.6672 25.3943L46.8144 24.9025C46.9261 24.9319 47.0256 24.9446 47.1128 24.9406C47.2 24.9366 47.277 24.9045 47.3438 24.8443C47.4118 24.7841 47.4718 24.6857 47.5236 24.5492L47.5992 24.3445L46.4506 21.2214H47.1046L47.8997 23.6139H47.9324L48.7274 21.2214H49.3835L48.0897 24.7158C48.0298 24.8764 47.9535 25.0122 47.8608 25.1233C47.7682 25.2357 47.6578 25.32 47.5297 25.3762C47.4017 25.4324 47.2531 25.4605 47.0842 25.4605ZM51.53 24.3044V20.1937H52.1615V21.9801H54.2483V20.1937H54.8818V24.3044H54.2483V22.5119H52.1615V24.3044H51.53ZM56.6661 24.3726C56.4672 24.3726 56.2873 24.3365 56.1265 24.2642C55.9657 24.1906 55.8384 24.0843 55.7443 23.9451C55.6517 23.8059 55.6053 23.6353 55.6053 23.4332C55.6053 23.2593 55.6394 23.1161 55.7076 23.0037C55.7757 22.8913 55.8677 22.8024 55.9835 22.7368C56.0993 22.6712 56.2287 22.6217 56.3718 22.5882C56.5149 22.5548 56.6606 22.5294 56.8092 22.5119C56.9972 22.4906 57.1498 22.4732 57.267 22.4598C57.3842 22.4451 57.4693 22.4216 57.5225 22.3895C57.5758 22.3574 57.6023 22.3052 57.6023 22.233V22.2189C57.6023 22.0436 57.5518 21.9078 57.4509 21.8115C57.3515 21.7151 57.203 21.6669 57.0054 21.6669C56.7996 21.6669 56.6375 21.7118 56.5189 21.8014C56.4018 21.8898 56.3207 21.9881 56.2757 22.0965L55.7014 21.968C55.7695 21.7807 55.869 21.6295 55.9998 21.5144C56.132 21.398 56.2839 21.3137 56.4556 21.2615C56.6273 21.208 56.8078 21.1812 56.9972 21.1812C57.1226 21.1812 57.2554 21.1959 57.3957 21.2254C57.5375 21.2535 57.6696 21.3057 57.7922 21.3819C57.916 21.4582 58.0178 21.5672 58.0967 21.7091C58.1755 21.8496 58.2152 22.0322 58.2152 22.257V24.3044H57.6184V23.8829H57.5942C57.5545 23.9605 57.4952 24.0367 57.4162 24.1117C57.3371 24.1866 57.2357 24.2489 57.1116 24.2983C56.9877 24.3478 56.8391 24.3726 56.6661 24.3726ZM56.799 23.8909C56.9679 23.8909 57.1123 23.8581 57.2323 23.7926C57.3535 23.727 57.4455 23.6413 57.5082 23.5356C57.5724 23.4286 57.604 23.3142 57.604 23.1924V22.7949C57.5821 22.8164 57.5402 22.8364 57.4775 22.8552C57.4162 22.8726 57.346 22.888 57.267 22.9014C57.188 22.9134 57.111 22.9248 57.036 22.9355C56.9611 22.9448 56.8984 22.9529 56.848 22.9595C56.7295 22.9743 56.6212 22.999 56.523 23.0338C56.4263 23.0686 56.3486 23.1188 56.2901 23.1844C56.2328 23.2486 56.2042 23.3342 56.2042 23.4413C56.2042 23.5898 56.2601 23.7022 56.3718 23.7785C56.4836 23.8534 56.6259 23.8909 56.799 23.8909ZM59.0785 24.3044V20.1937H59.6892V21.7211H59.726C59.7617 21.6569 59.8129 21.5827 59.8797 21.4983C59.9465 21.4141 60.0391 21.3405 60.1577 21.2776C60.2762 21.2133 60.4328 21.1812 60.6273 21.1812C60.8811 21.1812 61.1073 21.2441 61.3059 21.3699C61.505 21.4957 61.661 21.677 61.7744 21.9138C61.8883 22.1507 61.9459 22.4357 61.9459 22.7689C61.9459 23.1021 61.8895 23.3877 61.7761 23.6259C61.6633 23.8628 61.5079 24.0454 61.3099 24.1739C61.1125 24.301 60.8869 24.3646 60.6337 24.3646C60.4432 24.3646 60.2872 24.3331 60.1657 24.2702C60.0455 24.2074 59.9516 24.1338 59.8837 24.0494C59.8152 23.9652 59.7629 23.8902 59.726 23.8247H59.6754V24.3044H59.0785ZM59.6771 22.7628C59.6771 22.9796 59.7093 23.1696 59.7732 23.3329C59.8371 23.4962 59.9298 23.624 60.0512 23.7163C60.1726 23.8073 60.3211 23.8528 60.4967 23.8528C60.6791 23.8528 60.8316 23.8053 60.9548 23.7103C61.0774 23.6139 61.1701 23.4834 61.2328 23.3188C61.2967 23.1543 61.3283 22.9689 61.3283 22.7628C61.3283 22.5595 61.2973 22.3768 61.2345 22.2149C61.1735 22.053 61.0809 21.9252 60.9565 21.8315C60.8339 21.7379 60.6809 21.691 60.4967 21.691C60.3194 21.691 60.1698 21.7358 60.0472 21.8255C59.9257 21.9152 59.8337 22.0403 59.7709 22.2008C59.7088 22.3614 59.6771 22.5487 59.6771 22.7628ZM63.5459 24.3726C63.3468 24.3726 63.1666 24.3365 63.006 24.2642C62.8455 24.1906 62.7177 24.0843 62.6239 23.9451C62.5312 23.8059 62.4846 23.6353 62.4846 23.4332C62.4846 23.2593 62.5191 23.1161 62.587 23.0037C62.655 22.8913 62.747 22.8024 62.8627 22.7368C62.979 22.6712 63.1085 22.6217 63.2512 22.5882C63.3945 22.5548 63.5401 22.5294 63.6886 22.5119C63.8768 22.4906 64.0293 22.4732 64.1468 22.4598C64.2636 22.4451 64.3488 22.4216 64.4017 22.3895C64.4552 22.3574 64.4817 22.3052 64.4817 22.233V22.2189C64.4817 22.0436 64.4311 21.9078 64.3303 21.8115C64.2308 21.7151 64.0823 21.6669 63.8849 21.6669C63.6794 21.6669 63.5171 21.7118 63.3985 21.8014C63.2811 21.8898 63.2 21.9881 63.1551 22.0965L62.5807 21.968C62.6492 21.7807 62.7488 21.6295 62.8794 21.5144C63.0112 21.398 63.1632 21.3137 63.3352 21.2615C63.5068 21.208 63.6875 21.1812 63.8768 21.1812C64.0023 21.1812 64.1347 21.1959 64.2751 21.2254C64.4167 21.2535 64.5491 21.3057 64.6716 21.3819C64.796 21.4582 64.8973 21.5672 64.9761 21.7091C65.0555 21.8496 65.0947 22.0322 65.0947 22.257V24.3044H64.4978V23.8829H64.4737C64.4339 23.9605 64.3747 24.0367 64.2958 24.1117C64.2164 24.1866 64.1151 24.2489 63.9914 24.2983C63.867 24.3478 63.7186 24.3726 63.5459 24.3726ZM63.6783 23.8909C63.8475 23.8909 63.9919 23.8581 64.1116 23.7926C64.2331 23.727 64.3252 23.6413 64.3879 23.5356C64.4518 23.4286 64.4834 23.3142 64.4834 23.1924V22.7949C64.4621 22.8164 64.4196 22.8364 64.3568 22.8552C64.2958 22.8726 64.2256 22.888 64.1468 22.9014C64.0673 22.9134 63.9902 22.9248 63.9154 22.9355C63.8406 22.9448 63.7778 22.9529 63.7278 22.9595C63.6092 22.9743 63.5004 22.999 63.4026 23.0338C63.3059 23.0686 63.2282 23.1188 63.1695 23.1844C63.1125 23.2486 63.0837 23.3342 63.0837 23.4413C63.0837 23.5898 63.1396 23.7022 63.2512 23.7785C63.3629 23.8534 63.5056 23.8909 63.6783 23.8909ZM65.9091 24.3044V21.2214H66.4996V21.7111H66.5324C66.5893 21.5452 66.6901 21.4147 66.8345 21.3197C66.9801 21.2234 67.1453 21.1752 67.3295 21.1752C67.3675 21.1752 67.4124 21.1765 67.4642 21.1792C67.5171 21.1819 67.5585 21.1852 67.5891 21.1892V21.7633C67.5643 21.7566 67.5206 21.7492 67.4578 21.7412C67.3951 21.7318 67.3324 21.7271 67.2702 21.7271C67.1257 21.7271 66.9968 21.7573 66.8834 21.8175C66.7718 21.8764 66.6832 21.9587 66.6181 22.0643C66.5525 22.1687 66.5197 22.2878 66.5197 22.4216V24.3044H65.9091ZM68.1174 24.3044V21.2214H68.7286V24.3044H68.1174ZM68.4265 20.7456C68.32 20.7456 68.2285 20.7109 68.1525 20.6413C68.0777 20.5704 68.0397 20.4861 68.0397 20.3884C68.0397 20.2893 68.0777 20.2051 68.1525 20.1355C68.2285 20.0646 68.32 20.0291 68.4265 20.0291C68.5324 20.0291 68.6233 20.0646 68.6981 20.1355C68.7747 20.2051 68.8126 20.2893 68.8126 20.3884C68.8126 20.4861 68.7747 20.5704 68.6981 20.6413C68.6233 20.7109 68.5324 20.7456 68.4265 20.7456ZM69.6 24.3044V20.1937H71.0918C71.4175 20.1937 71.6875 20.2519 71.901 20.3683C72.1151 20.4847 72.2751 20.644 72.3816 20.846C72.488 21.0467 72.541 21.2729 72.541 21.5245C72.541 21.7773 72.4869 22.0048 72.3793 22.2069C72.2734 22.4076 72.1122 22.5668 71.897 22.6846C71.6834 22.801 71.4141 22.8592 71.0901 22.8592H70.0639V22.3333H71.0325C71.2386 22.3333 71.4055 22.2985 71.5332 22.2289C71.6616 22.1581 71.7554 22.0617 71.8152 21.9399C71.8751 21.8181 71.9056 21.6797 71.9056 21.5245C71.9056 21.3692 71.8751 21.2314 71.8152 21.1109C71.7554 20.9905 71.661 20.8962 71.5315 20.8279C71.4032 20.7597 71.2345 20.7256 71.0244 20.7256H70.2314V24.3044H69.6ZM74.118 24.3726C73.9188 24.3726 73.7393 24.3365 73.5781 24.2642C73.4175 24.1906 73.2898 24.0843 73.196 23.9451C73.1033 23.8059 73.0573 23.6353 73.0573 23.4332C73.0573 23.2593 73.0912 23.1161 73.1591 23.0037C73.2276 22.8913 73.3191 22.8024 73.4354 22.7368C73.5511 22.6712 73.6806 22.6217 73.8233 22.5882C73.9666 22.5548 74.1122 22.5294 74.2607 22.5119C74.4489 22.4906 74.6014 22.4732 74.7188 22.4598C74.8357 22.4451 74.9209 22.4216 74.9744 22.3895C75.0273 22.3574 75.0538 22.3052 75.0538 22.233V22.2189C75.0538 22.0436 75.0032 21.9078 74.9024 21.8115C74.8029 21.7151 74.6544 21.6669 74.457 21.6669C74.2515 21.6669 74.0892 21.7118 73.9706 21.8014C73.8532 21.8898 73.7726 21.9881 73.7272 22.0965L73.1534 21.968C73.2213 21.7807 73.3209 21.6295 73.4515 21.5144C73.5839 21.398 73.7358 21.3137 73.9073 21.2615C74.0788 21.208 74.2596 21.1812 74.4489 21.1812C74.5744 21.1812 74.7073 21.1959 74.8472 21.2254C74.9893 21.2535 75.1211 21.3057 75.2437 21.3819C75.368 21.4582 75.4693 21.5672 75.5482 21.7091C75.6276 21.8496 75.6667 22.0322 75.6667 22.257V24.3044H75.0699V23.8829H75.0457C75.006 23.9605 74.9467 24.0367 74.8679 24.1117C74.789 24.1866 74.6872 24.2489 74.5634 24.2983C74.4391 24.3478 74.2906 24.3726 74.118 24.3726ZM74.2503 23.8909C74.4196 23.8909 74.564 23.8581 74.6837 23.7926C74.8052 23.727 74.8973 23.6413 74.96 23.5356C75.0239 23.4286 75.0561 23.3142 75.0561 23.1924V22.7949C75.0342 22.8164 74.9916 22.8364 74.9289 22.8552C74.8679 22.8726 74.7977 22.888 74.7188 22.9014C74.6394 22.9134 74.5629 22.9248 74.4875 22.9355C74.4126 22.9448 74.3499 22.9529 74.2998 22.9595C74.1813 22.9743 74.0731 22.999 73.9747 23.0338C73.878 23.0686 73.8003 23.1188 73.7416 23.1844C73.6846 23.2486 73.6558 23.3342 73.6558 23.4413C73.6558 23.5898 73.7116 23.7022 73.8233 23.7785C73.935 23.8534 74.0777 23.8909 74.2503 23.8909ZM76.7551 25.4605C76.6636 25.4605 76.5801 25.4531 76.5053 25.4384C76.4305 25.425 76.3747 25.4103 76.3378 25.3943L76.4852 24.9025C76.5968 24.9319 76.6964 24.9446 76.7833 24.9406C76.8708 24.9366 76.9473 24.9045 77.0141 24.8443C77.0826 24.7841 77.1424 24.6857 77.1942 24.5492L77.2696 24.3445L76.1214 21.2214H76.7752L77.5701 23.6139H77.6029L78.3983 21.2214H79.0544L77.7606 24.7158C77.7001 24.8764 77.6242 25.0122 77.5315 25.1233C77.4388 25.2357 77.3283 25.32 77.2006 25.3762C77.0722 25.4324 76.9237 25.4605 76.7551 25.4605Z" fill="#889999"/>
</g>
<defs>
<linearGradient id="paint0_linear_11_18" x1="0" y1="12.4634" x2="78.2861" y2="12.4634" gradientUnits="userSpaceOnUse">
<stop stop-color="#FF4C1D"/>
<stop offset="1" stop-color="#9B0063"/>
</linearGradient>
<linearGradient id="paint1_linear_11_18" x1="17.4673" y1="10.7392" x2="79.6252" y2="10.7392" gradientUnits="userSpaceOnUse">
<stop stop-color="#FF4C1D"/>
<stop offset="1" stop-color="#9B0063"/>
</linearGradient>
<clipPath id="clip0_11_18">
<rect width="80" height="26" fill="white"/>
</clipPath>
</defs>
</svg>
