<svg width="139" height="46" viewBox="0 0 139 46" fill="none" xmlns="http://www.w3.org/2000/svg">
<path fill-rule="evenodd" clip-rule="evenodd" d="M17.2844 3.09546C15.2268 4.12003 11.9464 5.96033 9.80334 7.63781C4.57147 11.7319 0 16.1711 0 21.7365C0 27.6269 4.48697 32.4458 11.4137 33.3276C12.7881 33.5021 11.6239 34.8486 11.6239 34.8486C11.6239 34.8486 12.5331 34.5478 13.1529 34.3316C13.3326 34.2687 13.6304 34.9047 13.6304 34.9047C13.6304 34.9047 14.1883 34.2454 14.2465 34.2903C14.9172 34.8121 15.8141 34.9047 15.8141 34.9047C15.8141 34.9047 14.6308 33.5068 16.1047 33.3049C22.9356 32.3665 27.3489 27.5788 27.3489 21.7365C27.3489 15.8729 23.9195 11.7789 17.2658 7.37665C16.4066 6.80833 16.3092 5.20328 17.2844 3.09546ZM14.6767 8.99703C18.2096 12.2764 19.976 16.3741 19.976 20.4719C19.976 24.5691 18.2096 28.6668 14.6767 31.9462C19.668 25.6925 20.7158 15.9211 14.6767 8.99703ZM12.6454 8.99597C9.11254 12.2753 7.34606 16.3731 7.34606 20.4708C7.34606 24.5686 9.11254 28.6658 12.6454 31.9451C7.65363 25.6915 6.60633 15.92 12.6454 8.99597ZM13.6613 31.5545C13.9287 27.7855 14.0626 24.0166 14.0626 20.2472C14.0626 16.4783 13.9287 12.7094 13.6613 8.94047C12.8819 16.4783 12.8819 24.0166 13.6613 31.5545ZM18.0659 10.2251C21.9877 13.5817 24.2523 17.4484 24.4352 21.1814C24.6175 24.9138 22.7182 28.5125 18.3121 31.3324C26.077 24.4084 24.3512 16.7585 18.0659 10.2251ZM9.25624 10.2246C5.3344 13.5806 3.06979 17.4473 2.88691 21.1803C2.70403 24.9127 4.6034 28.5114 9.00949 31.3314C1.24513 24.4073 2.97037 16.7574 9.25624 10.2246Z" fill="url(#paint0_linear_13375_14351)"/>
<path d="M39.9115 31.35C33.9752 31.35 30.509 28.802 30.3496 24.0347H36.9234C37.1625 25.5964 37.8398 26.4594 39.8717 26.4594C41.6247 26.4594 42.4215 25.7607 42.4215 24.6922C42.4215 23.6648 41.4255 23.1716 38.5569 22.7606C32.9791 22.0209 30.6285 20.3359 30.6285 15.8563C30.6285 11.089 34.7322 8.7875 39.5529 8.7875C44.6925 8.7875 48.2782 10.5958 48.7563 15.733H42.302C42.0231 14.2946 41.2661 13.5959 39.6326 13.5959C38.0788 13.5959 37.282 14.2946 37.282 15.2809C37.282 16.3083 38.2382 16.7193 40.788 17.0481C46.565 17.7878 49.3539 19.3495 49.3539 23.9525C49.3539 29.0485 45.6885 31.35 39.9115 31.35ZM64.4426 38V27.4966C63.4026 29.5481 61.0825 31.3123 57.9224 31.3123C53.0823 31.3123 49.1221 27.7428 49.1221 20.3166V19.9884C49.1221 12.6852 53.0423 8.7875 58.0024 8.7875C61.2825 8.7875 63.2426 10.2235 64.4426 12.398V9.3619H71.6028V38H64.4426ZM60.2837 25.65C62.8432 25.65 64.4183 23.798 64.4183 20.1352V19.806C64.4183 16.1843 62.9613 14.25 60.3625 14.25C57.7242 14.25 56.3067 16.102 56.3067 19.8471V20.1764C56.3067 23.798 57.8424 25.65 60.2837 25.65ZM80.2713 31.1125C76.2278 31.1125 73.2251 28.5803 73.2251 23.1893V9.2625H80.3915V22.0049C80.3915 24.4146 81.3123 25.5989 83.3541 25.5989C85.516 25.5989 86.9172 24.292 86.9172 21.5557V9.2625H94.0835V30.6224H86.9172V27.3143C85.7962 29.5197 83.7544 31.1125 80.2713 31.1125ZM101.832 31.35C98.0862 31.35 94.7788 29.4595 94.7788 24.8977C94.7788 19.8427 98.923 17.87 105.857 17.87H107.849V17.3769C107.849 15.322 107.371 13.9658 105.099 13.9658C103.147 13.9658 102.43 15.1576 102.27 16.5138H95.5758C95.8945 11.3355 99.8395 8.7875 105.538 8.7875C111.276 8.7875 114.942 11.2122 114.942 16.9248V30.8568H108.008V28.3499C107.012 29.9116 105.179 31.35 101.832 31.35ZM104.437 26.125C106.473 26.125 107.989 24.9554 107.989 23.1406V21.85H106.114C103.24 21.85 101.963 22.4146 101.963 24.1488C101.963 25.3587 102.761 26.125 104.437 26.125ZM124.669 31.35C119.829 31.35 115.869 27.7847 115.869 20.3673V20.0394C115.869 12.7449 119.789 8.85176 124.749 8.85176C128.029 8.85176 129.989 10.2861 131.189 12.458V0H138.35V30.8582H131.189V27.3749C130.149 29.5878 127.829 31.35 124.669 31.35ZM127.031 25.65C129.59 25.65 131.165 23.798 131.165 20.1352V19.806C131.165 16.1843 129.708 14.25 127.109 14.25C124.471 14.25 123.053 16.102 123.053 19.8471V20.1764C123.053 23.798 124.589 25.65 127.031 25.65Z" fill="url(#paint1_linear_13375_14351)"/>
<path d="M75.1486 43V35.7273H76.2104V38.4297H76.2743C76.3359 38.3161 76.4247 38.1847 76.5407 38.0355C76.6567 37.8864 76.8176 37.7562 77.0236 37.6449C77.2296 37.5312 77.5018 37.4744 77.8404 37.4744C78.2807 37.4744 78.6737 37.5857 79.0194 37.8082C79.365 38.0308 79.6361 38.3516 79.8326 38.7706C80.0314 39.1896 80.1309 39.6939 80.1309 40.2834C80.1309 40.8729 80.0326 41.3783 79.8361 41.7997C79.6396 42.2187 79.3697 42.5419 79.0265 42.7692C78.6832 42.9941 78.2914 43.1065 77.851 43.1065C77.5196 43.1065 77.2485 43.0509 77.0378 42.9396C76.8295 42.8284 76.6661 42.6982 76.5478 42.549C76.4294 42.3999 76.3382 42.2673 76.2743 42.1513H76.1855V43H75.1486ZM76.1891 40.2727C76.1891 40.6562 76.2447 40.9924 76.356 41.2812C76.4673 41.5701 76.6283 41.7962 76.839 41.9595C77.0497 42.1205 77.3077 42.201 77.6131 42.201C77.9303 42.201 78.1955 42.117 78.4086 41.9489C78.6216 41.7784 78.7826 41.5476 78.8915 41.2564C79.0028 40.9652 79.0584 40.6373 79.0584 40.2727C79.0584 39.9129 79.004 39.5897 78.8951 39.3033C78.7885 39.0168 78.6275 38.7907 78.4121 38.625C78.199 38.4593 77.9327 38.3764 77.6131 38.3764C77.3053 38.3764 77.0449 38.4557 76.8319 38.6143C76.6212 38.773 76.4614 38.9943 76.3525 39.2784C76.2435 39.5625 76.1891 39.8939 76.1891 40.2727ZM81.8088 45.0455C81.6502 45.0455 81.5057 45.0324 81.3755 45.0064C81.2453 44.9827 81.1483 44.9567 81.0843 44.9283L81.34 44.0582C81.5342 44.1103 81.707 44.1328 81.8585 44.1257C82.01 44.1186 82.1438 44.0618 82.2598 43.9553C82.3781 43.8487 82.4823 43.6747 82.5723 43.4332L82.7037 43.071L80.7079 37.5455H81.8443L83.2257 41.7784H83.2825L84.6639 37.5455H85.8038L83.5559 43.728C83.4518 44.0121 83.3192 44.2524 83.1582 44.4489C82.9972 44.6477 82.8055 44.7969 82.5829 44.8963C82.3604 44.9957 82.1023 45.0455 81.8088 45.0455ZM89.5334 43V35.7273H90.6307V38.8878H94.2564V35.7273H95.3572V43H94.2564V39.8288H90.6307V43H89.5334ZM98.4574 43.1207C98.1117 43.1207 97.7992 43.0568 97.5199 42.929C97.2405 42.7988 97.0192 42.6106 96.8558 42.3643C96.6948 42.1181 96.6143 41.8163 96.6143 41.4588C96.6143 41.151 96.6735 40.8977 96.7919 40.6989C96.9103 40.5 97.0701 40.3426 97.2713 40.2266C97.4725 40.1106 97.6974 40.023 97.946 39.9638C98.1946 39.9046 98.4479 39.8596 98.706 39.8288C99.0327 39.791 99.2978 39.7602 99.5014 39.7365C99.705 39.7105 99.853 39.669 99.9453 39.6122C100.038 39.5554 100.084 39.4631 100.084 39.3352V39.3104C100.084 39.0002 99.9962 38.7599 99.821 38.5895C99.6482 38.419 99.3902 38.3338 99.0469 38.3338C98.6894 38.3338 98.4077 38.4131 98.2017 38.5717C97.9981 38.728 97.8572 38.902 97.7791 39.0938L96.7812 38.8665C96.8996 38.535 97.0724 38.2675 97.2997 38.0639C97.5294 37.858 97.7933 37.7088 98.0916 37.6165C98.3899 37.5218 98.7036 37.4744 99.0327 37.4744C99.2505 37.4744 99.4813 37.5005 99.7251 37.5526C99.9714 37.6023 100.201 37.6946 100.414 37.8295C100.629 37.9645 100.806 38.1574 100.943 38.4084C101.08 38.657 101.149 38.9801 101.149 39.3778V43H100.112V42.2543H100.07C100.001 42.3916 99.898 42.5265 99.7607 42.6591C99.6233 42.7917 99.447 42.9018 99.2315 42.9893C99.0161 43.0769 98.758 43.1207 98.4574 43.1207ZM98.6882 42.2685C98.9818 42.2685 99.2327 42.2105 99.4411 42.0945C99.6518 41.9785 99.8116 41.8269 99.9205 41.6399C100.032 41.4505 100.087 41.2481 100.087 41.0327V40.3295C100.049 40.3674 99.9761 40.4029 99.8672 40.4361C99.7607 40.4669 99.6387 40.4941 99.5014 40.5178C99.3641 40.5391 99.2304 40.5592 99.1001 40.5781C98.9699 40.5947 98.861 40.6089 98.7734 40.6207C98.5675 40.6468 98.3793 40.6906 98.2088 40.7521C98.0407 40.8137 97.9058 40.9025 97.804 41.0185C97.7045 41.1321 97.6548 41.2836 97.6548 41.473C97.6548 41.7358 97.7519 41.9347 97.946 42.0696C98.1402 42.2022 98.3875 42.2685 98.6882 42.2685ZM102.649 43V35.7273H103.71V38.4297H103.774C103.836 38.3161 103.925 38.1847 104.041 38.0355C104.157 37.8864 104.318 37.7562 104.524 37.6449C104.73 37.5312 105.002 37.4744 105.34 37.4744C105.781 37.4744 106.174 37.5857 106.519 37.8082C106.865 38.0308 107.136 38.3516 107.333 38.7706C107.531 39.1896 107.631 39.6939 107.631 40.2834C107.631 40.8729 107.533 41.3783 107.336 41.7997C107.14 42.2187 106.87 42.5419 106.526 42.7692C106.183 42.9941 105.791 43.1065 105.351 43.1065C105.02 43.1065 104.749 43.0509 104.538 42.9396C104.329 42.8284 104.166 42.6982 104.048 42.549C103.929 42.3999 103.838 42.2673 103.774 42.1513H103.686V43H102.649ZM103.689 40.2727C103.689 40.6562 103.745 40.9924 103.856 41.2812C103.967 41.5701 104.128 41.7962 104.339 41.9595C104.55 42.1205 104.808 42.201 105.113 42.201C105.43 42.201 105.695 42.117 105.909 41.9489C106.122 41.7784 106.283 41.5476 106.392 41.2564C106.503 40.9652 106.558 40.6373 106.558 40.2727C106.558 39.9129 106.504 39.5897 106.395 39.3033C106.289 39.0168 106.128 38.7907 105.912 38.625C105.699 38.4593 105.433 38.3764 105.113 38.3764C104.805 38.3764 104.545 38.4557 104.332 38.6143C104.121 38.773 103.961 38.9943 103.852 39.2784C103.744 39.5625 103.689 39.8939 103.689 40.2727ZM110.411 43.1207C110.065 43.1207 109.752 43.0568 109.473 42.929C109.194 42.7988 108.972 42.6106 108.809 42.3643C108.648 42.1181 108.567 41.8163 108.567 41.4588C108.567 41.151 108.627 40.8977 108.745 40.6989C108.863 40.5 109.023 40.3426 109.224 40.2266C109.426 40.1106 109.651 40.023 109.899 39.9638C110.148 39.9046 110.401 39.8596 110.659 39.8288C110.986 39.791 111.251 39.7602 111.455 39.7365C111.658 39.7105 111.806 39.669 111.898 39.6122C111.991 39.5554 112.037 39.4631 112.037 39.3352V39.3104C112.037 39.0002 111.949 38.7599 111.774 38.5895C111.601 38.419 111.343 38.3338 111 38.3338C110.643 38.3338 110.361 38.4131 110.155 38.5717C109.951 38.728 109.81 38.902 109.732 39.0938L108.734 38.8665C108.853 38.535 109.026 38.2675 109.253 38.0639C109.482 37.858 109.746 37.7088 110.045 37.6165C110.343 37.5218 110.657 37.4744 110.986 37.4744C111.204 37.4744 111.434 37.5005 111.678 37.5526C111.924 37.6023 112.154 37.6946 112.367 37.8295C112.583 37.9645 112.759 38.1574 112.896 38.4084C113.034 38.657 113.102 38.9801 113.102 39.3778V43H112.065V42.2543H112.023C111.954 42.3916 111.851 42.5265 111.714 42.6591C111.576 42.7917 111.4 42.9018 111.185 42.9893C110.969 43.0769 110.711 43.1207 110.411 43.1207ZM110.641 42.2685C110.935 42.2685 111.186 42.2105 111.394 42.0945C111.605 41.9785 111.765 41.8269 111.874 41.6399C111.985 41.4505 112.04 41.2481 112.04 41.0327V40.3295C112.003 40.3674 111.929 40.4029 111.82 40.4361C111.714 40.4669 111.592 40.4941 111.455 40.5178C111.317 40.5391 111.183 40.5592 111.053 40.5781C110.923 40.5947 110.814 40.6089 110.727 40.6207C110.521 40.6468 110.332 40.6906 110.162 40.7521C109.994 40.8137 109.859 40.9025 109.757 41.0185C109.658 41.1321 109.608 41.2836 109.608 41.473C109.608 41.7358 109.705 41.9347 109.899 42.0696C110.093 42.2022 110.341 42.2685 110.641 42.2685ZM114.517 43V37.5455H115.543V38.4119H115.6C115.699 38.1184 115.874 37.8875 116.125 37.7195C116.378 37.549 116.665 37.4638 116.985 37.4638C117.051 37.4638 117.129 37.4661 117.219 37.4709C117.311 37.4756 117.383 37.4815 117.436 37.4886V38.5043C117.393 38.4924 117.317 38.4794 117.208 38.4652C117.099 38.4486 116.99 38.4403 116.882 38.4403C116.631 38.4403 116.407 38.4936 116.21 38.6001C116.016 38.7043 115.862 38.8499 115.749 39.0369C115.635 39.2216 115.578 39.4323 115.578 39.669V43H114.517ZM118.354 43V37.5455H119.416V43H118.354ZM118.891 36.7038C118.706 36.7038 118.547 36.6423 118.415 36.5192C118.285 36.3937 118.219 36.2446 118.219 36.0717C118.219 35.8965 118.285 35.7474 118.415 35.6243C118.547 35.4988 118.706 35.4361 118.891 35.4361C119.075 35.4361 119.233 35.4988 119.363 35.6243C119.496 35.7474 119.562 35.8965 119.562 36.0717C119.562 36.2446 119.496 36.3937 119.363 36.5192C119.233 36.6423 119.075 36.7038 118.891 36.7038ZM120.93 43V35.7273H123.522C124.088 35.7273 124.557 35.8303 124.928 36.0362C125.3 36.2422 125.578 36.5239 125.763 36.8814C125.948 37.2365 126.04 37.6366 126.04 38.0817C126.04 38.5291 125.946 38.9316 125.759 39.2891C125.575 39.6442 125.295 39.9259 124.921 40.1342C124.55 40.3402 124.082 40.4432 123.519 40.4432H121.736V39.5128H123.419C123.777 39.5128 124.067 39.4512 124.289 39.3281C124.512 39.2027 124.675 39.0322 124.779 38.8168C124.883 38.6013 124.936 38.3563 124.936 38.0817C124.936 37.8071 124.883 37.5632 124.779 37.3501C124.675 37.1371 124.511 36.9702 124.286 36.8494C124.063 36.7287 123.77 36.6683 123.405 36.6683H122.027V43H120.93ZM128.78 43.1207C128.434 43.1207 128.122 43.0568 127.842 42.929C127.563 42.7988 127.341 42.6106 127.178 42.3643C127.017 42.1181 126.937 41.8163 126.937 41.4588C126.937 41.151 126.996 40.8977 127.114 40.6989C127.233 40.5 127.392 40.3426 127.594 40.2266C127.795 40.1106 128.02 40.023 128.268 39.9638C128.517 39.9046 128.77 39.8596 129.028 39.8288C129.355 39.791 129.62 39.7602 129.824 39.7365C130.027 39.7105 130.175 39.669 130.268 39.6122C130.36 39.5554 130.406 39.4631 130.406 39.3352V39.3104C130.406 39.0002 130.318 38.7599 130.143 38.5895C129.97 38.419 129.712 38.3338 129.369 38.3338C129.012 38.3338 128.73 38.4131 128.524 38.5717C128.32 38.728 128.18 38.902 128.101 39.0938L127.104 38.8665C127.222 38.535 127.395 38.2675 127.622 38.0639C127.852 37.858 128.116 37.7088 128.414 37.6165C128.712 37.5218 129.026 37.4744 129.355 37.4744C129.573 37.4744 129.804 37.5005 130.047 37.5526C130.294 37.6023 130.523 37.6946 130.736 37.8295C130.952 37.9645 131.128 38.1574 131.265 38.4084C131.403 38.657 131.471 38.9801 131.471 39.3778V43H130.434V42.2543H130.392C130.323 42.3916 130.22 42.5265 130.083 42.6591C129.946 42.7917 129.769 42.9018 129.554 42.9893C129.338 43.0769 129.08 43.1207 128.78 43.1207ZM129.01 42.2685C129.304 42.2685 129.555 42.2105 129.763 42.0945C129.974 41.9785 130.134 41.8269 130.243 41.6399C130.354 41.4505 130.41 41.2481 130.41 41.0327V40.3295C130.372 40.3674 130.298 40.4029 130.189 40.4361C130.083 40.4669 129.961 40.4941 129.824 40.5178C129.686 40.5391 129.553 40.5592 129.422 40.5781C129.292 40.5947 129.183 40.6089 129.096 40.6207C128.89 40.6468 128.702 40.6906 128.531 40.7521C128.363 40.8137 128.228 40.9025 128.126 41.0185C128.027 41.1321 127.977 41.2836 127.977 41.473C127.977 41.7358 128.074 41.9347 128.268 42.0696C128.462 42.2022 128.71 42.2685 129.01 42.2685ZM133.362 45.0455C133.203 45.0455 133.058 45.0324 132.928 45.0064C132.798 44.9827 132.701 44.9567 132.637 44.9283L132.893 44.0582C133.087 44.1103 133.26 44.1328 133.411 44.1257C133.563 44.1186 133.696 44.0618 133.812 43.9553C133.931 43.8487 134.035 43.6747 134.125 43.4332L134.256 43.071L132.261 37.5455H133.397L134.778 41.7784H134.835L136.217 37.5455H137.357L135.109 43.728C135.004 44.0121 134.872 44.2524 134.711 44.4489C134.55 44.6477 134.358 44.7969 134.136 44.8963C133.913 44.9957 133.655 45.0455 133.362 45.0455Z" fill="#889999"/>
<defs>
<linearGradient id="paint0_linear_13375_14351" x1="0" y1="22.0505" x2="136.022" y2="22.0505" gradientUnits="userSpaceOnUse">
<stop stop-color="#FF4C1D"/>
<stop offset="1" stop-color="#9B0063"/>
</linearGradient>
<linearGradient id="paint1_linear_13375_14351" x1="30.3496" y1="19.0002" x2="138.349" y2="19.0002" gradientUnits="userSpaceOnUse">
<stop stop-color="#FF4C1D"/>
<stop offset="1" stop-color="#9B0063"/>
</linearGradient>
</defs>
</svg>
