<svg width="442" height="94" viewBox="0 0 442 94" fill="none" xmlns="http://www.w3.org/2000/svg">
<path fill-rule="evenodd" clip-rule="evenodd" d="M55.4755 0.215224C44.6597 1.88628 31.511 9.18304 21.74 18.9362C11.1698 29.4874 4.19454 41.2907 0.951362 54.1146L0 57.8761L0.00351527 64.1873L0.00703053 70.4984L0.811941 72.5113C1.72888 74.8044 2.61632 75.5824 4.31605 75.5824H5.502L6.65986 74.4264C7.7868 73.3013 8.58644 71.336 8.59031 69.6825C8.59206 68.9476 9.227 68.2001 11.4391 66.3281L12.1043 65.765V63.9979V62.2311L14.3652 59.8277L16.6265 57.4238L16.8779 55.1956L17.1297 52.9674L18.2714 51.9156C18.8993 51.337 19.8243 50.5481 20.3276 50.1625L21.2421 49.4612L21.556 47.7334L21.87 46.0055L23.3084 44.6795C24.185 43.8716 24.7472 43.04 24.7483 42.5505C24.7504 41.2613 25.9609 39.6379 27.4271 38.9573C29.4218 38.0321 29.9216 37.4795 30.5698 35.4827C31.3193 33.1756 32.5147 31.9137 34.6099 31.2192C36.5624 30.5716 36.8448 30.2865 37.5721 28.2284C38.3113 26.1369 39.3091 25.1759 41.3782 24.5623C43.6167 23.8986 44.2537 23.2993 44.9522 21.1995C45.616 19.2045 46.7865 18.1586 48.6973 17.8535L50.0665 17.6351L50.7141 16.3676C51.6163 14.6036 52.4202 13.99 54.2147 13.6959C55.8484 13.428 56.8394 12.6338 57.8122 10.8134C58.5627 9.40884 59.8343 8.5947 61.8709 8.21497C63.8831 7.83946 64.9613 7.15891 65.8508 5.70244C66.942 3.91533 66.5321 0.909108 65.2633 1.39507C64.9785 1.50411 64.8324 1.45292 64.9388 1.28111C65.527 0.330581 59.2819 -0.372766 55.4755 0.215224ZM50.0321 1.96832L49.5053 2.32421L50.5589 2.08895C51.8502 1.80039 52.1304 1.59983 51.2321 1.60684C50.8619 1.61 50.3218 1.77233 50.0321 1.96832ZM432.998 4.21335C428.255 5.95032 427.169 12.7418 431.154 15.7512C434.169 18.0281 437.968 17.6305 440.479 14.7751C443.062 11.8383 442.067 6.23994 438.677 4.63374C436.879 3.78209 434.631 3.61554 432.998 4.21335ZM298.444 4.75611C293.875 5.74766 290.167 7.25708 286.523 9.60974C278.045 15.0836 272.47 23.5402 270.71 33.5985L270.142 36.8389L270.347 40.5204C270.925 50.9426 275.974 60.3504 284.266 66.4526C297.592 76.2595 317.86 75.0067 329.21 63.6746C331.734 61.1547 333.093 59.1888 334.853 55.5126C336.751 51.5492 337.658 47.8024 337.9 42.9327C338.124 38.4248 337.965 37.3266 336.94 36.3042L336.247 35.6117H321.657H307.067L306.205 36.4725L305.343 37.3329V41.1445V44.9561L306.254 45.8063L307.165 46.6563L313.014 46.5637C316.231 46.5128 320.319 46.5665 322.098 46.6833L325.333 46.895L324.674 48.6274C322.406 54.5852 316.731 59.2691 310.073 60.6772C304.888 61.7739 300.048 61.1088 294.955 58.5994L291.767 57.0287L289.509 54.7749C278.569 43.8523 281.539 25.4416 295.362 18.5015C298.503 16.9244 301.52 16.2305 305.343 16.2063C309.407 16.1807 311.67 16.6867 315.388 18.4524L318.233 19.804L320.882 22.2734C322.564 23.8418 323.823 24.7425 324.333 24.7425C325.105 24.7425 330.308 21.5512 331.945 20.074L332.735 19.3608V18.0316V16.7021L330.189 14.1776C325.679 9.70546 319.864 6.43873 313.685 4.90617C312.465 4.60358 309.303 4.29434 306.572 4.21055L301.655 4.05943L298.444 4.75611ZM349.916 4.85322C346.518 7.13892 345.831 11.8569 348.443 14.957C350.984 17.9706 356.478 17.6526 358.709 14.3627L359.573 13.0889L359.702 10.9389L359.831 8.78929L358.987 7.2115C358.46 6.22521 357.627 5.34024 356.765 4.85042L355.386 4.06749L353.243 4.06153L351.101 4.05592L349.916 4.85322ZM104.824 5.90859C104.345 6.15087 103.754 6.74026 103.512 7.21851L103.071 8.08805L103.066 39.2214L103.061 70.355L103.923 71.2154L104.785 72.0762H109.16H113.534L114.443 70.9973L115.352 69.9188L115.353 59.6899L115.354 49.4612L124.572 49.4391L133.789 49.4167L136.153 48.8322C146.561 46.2572 152.929 38.2242 152.929 27.6688C152.929 16.1653 145.409 7.45377 134.065 5.81603C132.754 5.62704 125.835 5.47137 118.689 5.47067L105.695 5.46856L104.824 5.90859ZM408.136 6.01799C407.595 6.31041 407.003 6.94538 406.819 7.42924C406.631 7.92186 406.484 13.3144 406.484 19.6813C406.484 25.936 406.388 31.0537 406.272 31.0537C406.155 31.0537 405.27 30.344 404.303 29.4769C400.932 26.4504 395.366 24.4042 390.505 24.4042C387.301 24.4042 383.8 25.2747 380.496 26.8936L377.511 28.356L374.685 31.195C370.061 35.84 367.951 40.661 367.609 47.3645L367.411 51.2283L368.156 54.2016C368.565 55.8369 369.556 58.516 370.357 60.1551L371.815 63.1354L374.838 66.1185C379.66 70.8757 384.262 72.7774 390.949 72.7774C396.531 72.7774 400.613 71.2835 404.514 67.812L406.484 66.0596V68.2071V70.355L407.346 71.2154L408.208 72.0762H412.391H416.573L417.499 71.3494L418.424 70.6229V38.9482V7.27391L417.343 6.36615L416.263 5.4584L412.69 5.47243L409.118 5.48644L408.136 6.01799ZM69.1716 7.19713C68.0503 7.66345 66.4271 9.55399 66.7291 10.0421C66.8981 10.3148 66.8527 10.386 66.6069 10.2345C66.1816 9.97229 65.133 11.704 65.133 12.6685C65.133 13.9248 63.6615 15.8189 61.9467 16.7701C60.0324 17.8318 58.9146 19.3307 58.5971 21.2612C58.2424 23.4158 56.9662 25.5058 55.5604 26.234C53.6974 27.1993 52.2839 28.9748 51.6525 31.1431C51.3497 32.183 50.7966 33.3096 50.4237 33.6468C50.0507 33.9838 49.2634 35.2671 48.6741 36.4988L47.6026 38.7382L46.0957 39.4938C43.7656 40.6614 43.079 41.4716 42.6432 43.5687C42.1494 45.9434 40.6611 47.7162 38.2682 48.78C36.0624 49.7606 35.1735 50.7399 34.4392 52.9986C33.773 55.0473 32.5498 56.3628 30.5414 57.1913C28.5892 57.9964 27.9644 58.6394 27.5223 60.2985C27.0573 62.0429 26.4491 62.7655 24.985 63.3142C22.6981 64.1708 22.2921 64.5056 21.7169 66.0091C21.0791 67.6766 19.9093 68.6945 17.8261 69.3947L16.4941 69.8424L15.6867 71.5075L14.8793 73.1729L12.7016 74.1575C10.2338 75.2735 9.07354 76.3622 8.6019 78.0041C7.68356 81.2007 10.4379 82.7308 17.0208 82.6807C23.3305 82.6327 29.3986 80.9753 36.8441 77.2664C49.0224 71.2 58.1283 62.8135 65.559 50.8206C74.7835 35.9318 78.5928 17.7873 74.2701 9.32749C73.1298 7.09615 71.277 6.32198 69.1716 7.19713ZM115.352 27.1968V37.3648H123.943H132.534L134.419 36.6608C137 35.6966 138.967 33.9245 139.925 31.7009L140.717 29.8633L140.564 26.8645L140.412 23.866L139.662 22.4186C138.67 20.5063 136.077 18.2676 134.058 17.5811L132.435 17.0289H123.894H115.352V27.1968ZM172.797 25.4648C164.292 26.8862 157.789 32.8948 154.987 41.9229L154.17 44.5525L154.169 49.1106L154.167 53.6687L154.781 55.9477C155.625 59.0836 157.481 62.7346 159.497 65.2237C161.529 67.7331 165.637 70.6131 168.755 71.714L171.015 72.5117L175.263 72.6852L179.511 72.8584L181.584 72.261C184.425 71.4423 187.24 69.8929 189.273 68.0294C190.211 67.1696 191.03 66.4663 191.093 66.4663C191.156 66.4663 191.208 67.3832 191.208 68.5037V70.5415L191.924 71.3087L192.64 72.0762H197.131H201.621L202.385 71.2649L203.148 70.4532V49.3704V28.288L202.3 27.3041L201.452 26.3203H197.236H193.02L192.114 27.1702L191.208 28.0204V29.8875C191.208 30.9145 191.16 31.7549 191.1 31.7549C191.041 31.7549 190.224 31.0403 189.285 30.1666C185.2 26.369 178.618 24.4918 172.797 25.4648ZM348.714 26.2179C348.328 26.4392 347.819 26.868 347.584 27.1712L347.156 27.7228L347.145 49.0387L347.134 70.355L347.996 71.2154L348.858 72.0762H353.104H357.35L358.212 71.2154L359.074 70.355V49.1534V27.9517L358.165 26.8732L357.255 25.7944L353.336 25.8049C351.05 25.8112 349.123 25.9834 348.714 26.2179ZM430.12 26.6404L429.135 27.4865L429.039 48.7484L428.943 70.0103L429.978 71.0433L431.012 72.0762H435.234H439.456L440.441 71.2302L441.426 70.3841L441.53 50.1053C441.587 38.9521 441.536 29.296 441.419 28.6477C441.301 27.9994 440.827 27.0924 440.366 26.6316L439.527 25.7944H435.316H431.106L430.12 26.6404ZM210.706 27.1891L210.077 27.8823L210.265 29.2052C210.369 29.9324 214.577 40.1523 219.618 51.9156C224.658 63.6789 228.783 73.5898 228.783 73.9401C228.786 75.209 226.443 79.6201 225.18 80.725C223.674 82.0419 220.709 82.7799 218.345 82.4258C216.426 82.1387 214.975 82.6709 214.432 83.8623C213.928 84.9657 213.913 90.36 214.411 91.4504C215.035 92.8178 216.07 93.1853 219.835 93.3771L223.406 93.559L226.007 92.9798C229.029 92.307 231.508 90.9904 233.636 88.9284C236.803 85.8598 236.516 86.4716 252.843 48.0587C255.876 40.9236 258.894 33.8555 259.55 32.3517C260.894 29.2683 261.035 27.9205 260.1 27.0759L259.458 26.4956H254.529H249.599L248.674 27.2224C248.165 27.6218 247.749 28.0906 247.749 28.2638C247.749 28.437 246.263 32.1725 244.446 36.5654C242.63 40.9583 239.846 47.7081 238.258 51.5649C236.671 55.4218 235.33 58.6247 235.28 58.6829C235.229 58.7407 233.759 55.1907 232.013 50.7939C225.618 34.685 222.819 28.0555 222.086 27.2845L221.336 26.4956H216.335H211.334L210.706 27.1891ZM389.627 35.7309C385.584 36.6657 382.457 39.1256 380.666 42.7805L379.663 44.8274L379.511 47.7022C379.165 54.2805 382.633 59.3992 388.696 61.2596L391.101 61.9976L393.452 61.8297C398.223 61.4889 402.54 58.4462 404.659 53.9327L405.606 51.9156V48.5773V45.2391L404.456 42.9071C401.709 37.3354 395.559 34.3597 389.627 35.7309ZM175.15 36.4444C171.733 37.3112 168.917 39.7473 167.195 43.3254L166.098 45.6044V49.118V52.6315L167.251 54.9681C169.44 59.4073 173.39 61.9082 178.214 61.9082C183.044 61.9082 187.266 59.2081 189.49 54.6963L190.599 52.4478L190.771 50.0517C191.403 41.2294 183.483 34.3306 175.15 36.4444Z" fill="black"/>
</svg>
